<svg width="30" height="30" viewBox="0 0 30 30" fill="none" xmlns="http://www.w3.org/2000/svg">
<path d="M25.0313 9.98333C24.4664 -3.32249 5.55164 -3.32801 4.96925 9.96818C4.96543 12.363 5.81941 14.6828 7.37395 16.5003C7.80012 16.9981 8.17943 17.5332 8.5065 18.0968C6.56342 19.3067 7.54896 22.1734 9.84946 21.9774C9.99036 22.8381 9.94709 24.1418 9.95255 25.0224C9.95255 26.481 11.022 27.694 12.418 27.9197C13.055 30.6943 16.9467 30.6924 17.5827 27.9197C18.9786 27.694 20.0481 26.481 20.0481 25.0224C20.0536 24.1385 20.0095 22.841 20.1527 21.9774C22.4486 22.1722 23.4341 19.3149 21.5022 18.1015C21.8354 17.5261 22.222 16.9777 22.6561 16.4652C24.1878 14.6586 25.0313 12.3566 25.0313 9.98333ZM15.0002 28.8369C14.4005 28.8369 13.8841 28.4748 13.6573 27.9578H16.3431C16.1164 28.4748 15.6 28.8369 15.0002 28.8369ZM17.1126 26.7837H12.888C11.8966 26.7855 11.097 25.9575 11.1267 24.9676H18.8739C18.9037 25.9575 18.1041 26.7854 17.1126 26.7837ZM20.4464 20.8032C20.1051 20.8036 19.3953 20.8029 19.0588 20.8032C18.3337 20.8245 18.2607 21.8419 18.9695 21.9698C18.8892 22.5703 18.8671 23.1875 18.8739 23.7934H11.1267C11.1334 23.1899 11.1119 22.5772 11.0333 21.9773H13.775C14.0992 21.9773 14.3621 21.7145 14.3621 21.3902C14.3621 21.066 14.0992 20.8031 13.775 20.8031H9.55415C9.05349 20.8031 8.64611 20.3958 8.64611 19.8951C8.64611 19.3944 9.05343 18.987 9.55415 18.987C12.7249 18.9873 17.276 18.9869 20.4463 18.987C21.6477 19.0354 21.6538 20.7522 20.4464 20.8032ZM15.7705 13.0756C15.3037 12.8401 14.6927 12.8423 14.2305 13.0762L12.0259 10.0284H13.2455C13.446 10.0284 13.6326 9.92603 13.7405 9.75701L14.1894 9.05327L15.1767 11.3076C15.3552 11.734 15.9705 11.781 16.2112 11.385L17.0659 10.0283H17.9745L15.7705 13.0756ZM14.4132 14.6599C14.411 14.1138 15.1102 13.8637 15.4539 14.2875C15.4543 14.288 15.4546 14.2884 15.4549 14.2888C15.5407 14.3934 15.5873 14.5231 15.5873 14.66V17.8131H14.4132V14.6599ZM20.3181 17.813H16.7616V14.6599C16.7616 14.4033 16.7066 14.155 16.6029 13.9282L19.4238 10.0283H20.682C21.4608 9.99736 21.4605 8.88495 20.682 8.85413H20.2732L20.7792 8.15456C21.2105 7.50554 20.3091 6.85364 19.8278 7.46638L18.824 8.85413H16.742C16.5403 8.85413 16.3528 8.95763 16.2453 9.1283L15.8082 9.82223L14.8238 7.57481C14.6459 7.14959 14.0324 7.10133 13.7911 7.49461L12.9238 8.85419H11.1766L10.1728 7.46643C9.69141 6.85364 8.79012 7.50565 9.22145 8.15462L9.72746 8.85419H9.31861C8.53984 8.88507 8.54008 9.99754 9.31861 10.0284H10.5768L13.3984 13.9292C13.2964 14.152 13.2391 14.3993 13.2391 14.66V17.8131H9.69306C9.29355 17.075 8.81478 16.378 8.26609 15.737C3.37267 10.0587 7.4963 1.10102 15.0004 1.12662C22.4868 1.10114 26.616 10.0208 21.7601 15.7063C21.2063 16.3602 20.7223 17.0676 20.3181 17.813Z" fill="#118BDD"/>
<path d="M16.9602 21.6142C17.085 21.3149 16.9436 20.9711 16.6443 20.8462C16.3451 20.7214 16.0013 20.8628 15.8764 21.1621C15.7516 21.4614 15.893 21.8052 16.1923 21.93C16.4915 22.0548 16.8353 21.9134 16.9602 21.6142Z" fill="#118BDD"/>
</svg>
