<svg viewBox="0 0 102 22" fill="none" xmlns="http://www.w3.org/2000/svg">
  <path fill-rule="evenodd" clip-rule="evenodd" d="M73.5816 9.5H68.4056L57.8503 22H61.7284L69.5472 12.7431H69.6253L67.1546 22H70.2508L73.5816 9.5Z" fill="rgb(14, 63, 140)"></path>
  <path fill-rule="evenodd" clip-rule="evenodd" d="M46.0365 13.4043C46.6295 11.2475 45.3153 9.50002 43.1196 9.50002H34.3688L30.9551 22H39.7059C41.9016 22 44.1614 20.2525 44.7544 18.0957C44.9948 17.2141 44.9147 16.4112 44.5941 15.75C45.2833 15.1045 45.7961 14.2859 46.0365 13.4043ZM41.2765 18.8829H34.9939L35.4266 17.3243H41.7092C41.6932 17.5762 41.6451 17.8438 41.581 18.1115C41.5009 18.3634 41.4047 18.631 41.2765 18.8829ZM42.5587 14.1915H36.2761L36.7088 12.6329H42.9914C42.9754 12.8848 42.9273 13.1524 42.8632 13.42C42.7991 13.6877 42.6869 13.9396 42.5587 14.1915Z" fill="rgb(14, 63, 140)"></path>

  <path fill-rule="evenodd" clip-rule="evenodd" d="M60.2452 13.4043C60.8394 11.2475 59.5224 9.5 57.3221 9.5H48.5528L47.7016 12.6171H57.1936C57.1775 12.869 57.1293 13.1366 57.0651 13.4043C57.0009 13.6719 56.8884 13.9395 56.776 14.1914H47.284L46.4328 17.3086H55.9248C55.9087 17.5605 55.8605 17.8281 55.7963 18.0957C55.716 18.3633 55.6196 18.631 55.5072 18.8829H46.0152L45.164 22H53.9332C56.1336 22 58.3982 20.2525 58.9924 18.0957C59.2333 17.2141 59.153 16.4112 58.8318 15.75C59.4903 15.1045 60.0042 14.2859 60.2452 13.4043Z" fill="rgb(14, 63, 140)"></path>

  <path fill-rule="evenodd" clip-rule="evenodd" d="M77.5811 14.1763L77.918 12.9484C77.9661 12.7595 78.1587 12.6178 78.3512 12.6178H87.4481L88.2984 9.50096H79.5384C77.3565 9.45373 75.0943 11.1539 74.5167 13.3105L73.2171 18.096C72.6235 20.2526 73.9391 22 76.1371 22H84.8971L85.7474 18.8831H76.6505C76.458 18.8831 76.3457 18.7257 76.3938 18.5525L76.7307 17.3247H86.1806L87.031 14.2078H77.5811V14.1763Z" fill="rgb(14, 63, 140)"></path>

  <path fill-rule="evenodd" clip-rule="evenodd" d="M102 9.5H89.6285L88.8058 12.6329H93.447L90.9479 22H94.0524L96.536 12.6329H101.177L102 9.5Z" fill="rgb(14, 63, 140)"></path>

  <path fill-rule="evenodd" clip-rule="evenodd" d="M0 22L2.12067 14.144L23.3433 0L21.2226 7.85601L0 22Z" fill="rgb(14, 63, 140)"> </path>

<path d="M14.3137 14.3083L12.1787 22L25.7751 13.1917L27.91 5.49998L14.3137 14.3083Z" fill="rgb(14, 63, 140)"></path>
</svg>